<?xml version="1.0" encoding="UTF-8"?>
<svg id="Capa_1" data-name="Capa 1" xmlns="http://www.w3.org/2000/svg" viewBox="0 0 657.01 164.52">
  <defs>
    <style>
      .cls-1 {
        fill: #0e0e0e;
      }
    </style>
  </defs>
  <path class="cls-1" d="M147.68,161.99h-36.31c-4.2,0-8.14-2.04-10.55-5.48l-42.11-59.91-22.76,25.29v27.18c.01,7.12-5.76,12.91-12.88,12.92H0V2.49H23.05c7.13,0,12.91,5.79,12.9,12.92h0v61.36L98.1,6.82c2.45-2.75,5.96-4.33,9.64-4.33h36.08l-60.08,66.31,63.94,93.19Z"/>
  <path class="cls-1" d="M282.62,13.2c10.16,7.14,15.24,16.86,15.25,29.17,.16,8.03-2.46,15.88-7.4,22.21-4.93,6.31-11.65,10.61-20.14,12.88,10.32,2,18.44,6.59,24.35,13.78,5.91,7.19,8.87,16.04,8.88,26.55,0,13.67-5.39,24.45-16.16,32.35-10.77,7.9-25.43,11.85-43.96,11.85h-75.73V2.49h73.27c17.59,0,31.47,3.57,41.64,10.71m-27.42,48.88c3.87-3.12,5.81-7.49,5.8-13.1,0-5.48-1.93-9.72-5.8-12.77s-9.22-4.48-16-4.32h-35.5v34.86h35.5c6.82,0,12.15-1.56,16-4.67m4,65.39c4.71-3.17,7.45-8.56,7.24-14.24,.14-5.52-2.62-10.71-7.28-13.67-4.85-3.33-11.51-4.93-20-4.79h-35.5v37.83h35.5c8.49,0,15.15-1.71,20-5.13"/>
  <path class="cls-1" d="M447.37,10.69c39.49,21.64,53.96,71.19,32.32,110.68-7.47,13.64-18.69,24.85-32.32,32.32-27.18,14.44-59.75,14.44-86.93,0-26.26-14.21-42.47-41.81-42.09-71.66-.31-29.72,15.86-57.17,42-71.32C373.32,3.58,387.84,.01,403.92,0c15.16-.19,30.13,3.49,43.47,10.7m-66.38,26.77c-8.04,4.42-14.69,11-19.18,19-13.8,24.31-5.79,55.18,18.08,69.72,7.33,4.45,15.74,6.82,24.32,6.84,8.6,.1,17.05-2.23,24.38-6.72,7.37-4.49,13.42-10.86,17.52-18.46,4.35-7.92,6.59-16.83,6.49-25.86,.09-8.93-2.15-17.72-6.49-25.52-4.13-7.55-10.17-13.87-17.52-18.34-7.65-4.67-16.5-7-25.46-6.71-7.76,.19-15.35,2.24-22.14,6"/>
  <path class="cls-1" d="M501.3,2.49h35.05c4.27,0,8.26,2.11,10.66,5.64l29.43,43.12,29.6-43.15c2.41-3.51,6.39-5.61,10.64-5.61h35.76l-53,76.33,57.57,83.17h-36.33c-4.19,0-8.11-2.03-10.53-5.45l-33.71-47.64-33,47.55c-2.41,3.47-6.37,5.54-10.59,5.54h-35.41l57.11-81.57L501.3,2.49Z"/>
</svg>